<?xml version="1.0" encoding="UTF-8" standalone="no"?>
<!DOCTYPE svg PUBLIC "-//W3C//DTD SVG 1.1//EN" "http://www.w3.org/Graphics/SVG/1.1/DTD/svg11.dtd">
<svg width="100%" height="100%" viewBox="0 0 640 400" version="1.1" xmlns="http://www.w3.org/2000/svg" xmlns:xlink="http://www.w3.org/1999/xlink" xml:space="preserve" xmlns:serif="http://www.serif.com/" style="fill-rule:evenodd;clip-rule:evenodd;stroke-linejoin:round;">
    <rect x="0" y="0" width="640" height="400" style="fill:white;"/>
    <rect x="60.309" y="11.811" width="567.881" height="345.839" style="fill:white;"/>
    <path d="M60.309,357.65L60.309,11.811" style="fill:none;fill-rule:nonzero;stroke:black;stroke-opacity:0.1;stroke-width:0.5px;"/>
    <path d="M173.658,357.65L173.658,11.811" style="fill:none;fill-rule:nonzero;stroke:black;stroke-opacity:0.1;stroke-width:0.5px;"/>
    <path d="M287.008,357.65L287.008,11.811" style="fill:none;fill-rule:nonzero;stroke:black;stroke-opacity:0.1;stroke-width:0.5px;"/>
    <path d="M400.358,357.65L400.358,11.811" style="fill:none;fill-rule:nonzero;stroke:black;stroke-opacity:0.1;stroke-width:0.5px;"/>
    <path d="M513.705,357.65L513.705,11.811" style="fill:none;fill-rule:nonzero;stroke:black;stroke-opacity:0.1;stroke-width:0.5px;"/>
    <path d="M627.055,357.65L627.055,11.811" style="fill:none;fill-rule:nonzero;stroke:black;stroke-opacity:0.1;stroke-width:0.5px;"/>
    <path d="M60.309,357.65L628.19,357.65" style="fill:none;fill-rule:nonzero;stroke:black;stroke-width:1px;"/>
    <path d="M60.309,357.65L60.309,352.925" style="fill:none;fill-rule:nonzero;stroke:black;stroke-width:1px;"/>
    <path d="M173.658,357.65L173.658,352.925" style="fill:none;fill-rule:nonzero;stroke:black;stroke-width:1px;"/>
    <path d="M287.008,357.65L287.008,352.925" style="fill:none;fill-rule:nonzero;stroke:black;stroke-width:1px;"/>
    <path d="M400.358,357.65L400.358,352.925" style="fill:none;fill-rule:nonzero;stroke:black;stroke-width:1px;"/>
    <path d="M513.705,357.65L513.705,352.925" style="fill:none;fill-rule:nonzero;stroke:black;stroke-width:1px;"/>
    <path d="M627.055,357.65L627.055,352.925" style="fill:none;fill-rule:nonzero;stroke:black;stroke-width:1px;"/>
    <g transform="matrix(1,0,0,1,60.3088,373.433)">
        <text x="-3.337px" y="0px" style="font-family:'ArialMT', 'Arial', sans-serif;font-size:12px;">0</text>
    </g>
    <g transform="matrix(1,0,0,1,173.658,373.433)">
        <text x="-6.674px" y="0px" style="font-family:'ArialMT', 'Arial', sans-serif;font-size:12px;">20</text>
    </g>
    <g transform="matrix(1,0,0,1,287.007,373.433)">
        <text x="-6.674px" y="0px" style="font-family:'ArialMT', 'Arial', sans-serif;font-size:12px;">40</text>
    </g>
    <g transform="matrix(1,0,0,1,400.358,373.433)">
        <text x="-6.674px" y="0px" style="font-family:'ArialMT', 'Arial', sans-serif;font-size:12px;">60</text>
    </g>
    <g transform="matrix(1,0,0,1,513.705,373.433)">
        <text x="-6.674px" y="0px" style="font-family:'ArialMT', 'Arial', sans-serif;font-size:12px;">80</text>
    </g>
    <g transform="matrix(1,0,0,1,627.055,373.433)">
        <text x="-10.011px" y="0px" style="font-family:'ArialMT', 'Arial', sans-serif;font-size:12px;">100</text>
    </g>
    <g>
        <g transform="matrix(1,0,0,1,344.25,394.715)">
            <text x="-37.588px" y="0px" style="font-family:'Arial-ItalicMT', 'Arial', sans-serif;font-style:italic;font-size:16.5px;">n</text>
            <text x="-23.828px" y="0px" style="font-family:'ArialMT', 'Arial', sans-serif;font-size:16.5px;">(millions)</text>
        </g>
        <g transform="matrix(1,0,0,1,-154.878,-90.7472)">
            <text x="334.349px" y="269.976px" style="font-family:'ArialMT', 'Arial', sans-serif;font-size:15px;">overall average</text>
        </g>
        <g transform="matrix(1,0,0,1,-154.644,-230.664)">
            <text x="334.349px" y="269.976px" style="font-family:'ArialMT', 'Arial', sans-serif;font-size:15px;">two prime neighbors</text>
        </g>
        <g transform="matrix(1,0,0,1,-154.878,-129.712)">
            <text x="334.349px" y="269.976px" style="font-family:'ArialMT', 'Arial', sans-serif;font-size:15px;">one prime neighbor</text>
        </g>
        <g transform="matrix(1,0,0,1,-154.673,-67.1855)">
            <text x="334.349px" y="269.976px" style="font-family:'ArialMT', 'Arial', sans-serif;font-size:15px;">zero prime neighbors</text>
        </g>
    </g>
    <path d="M60.309,357.65L628.19,357.65" style="fill:none;fill-rule:nonzero;stroke:black;stroke-opacity:0.1;stroke-width:0.5px;"/>
    <path d="M60.309,314.42L628.19,314.42" style="fill:none;fill-rule:nonzero;stroke:black;stroke-opacity:0.1;stroke-width:0.5px;"/>
    <path d="M60.309,271.19L628.19,271.19" style="fill:none;fill-rule:nonzero;stroke:black;stroke-opacity:0.1;stroke-width:0.5px;"/>
    <path d="M60.309,227.96L628.19,227.96" style="fill:none;fill-rule:nonzero;stroke:black;stroke-opacity:0.1;stroke-width:0.5px;"/>
    <path d="M60.309,184.73L628.19,184.73" style="fill:none;fill-rule:nonzero;stroke:black;stroke-opacity:0.1;stroke-width:0.5px;"/>
    <path d="M60.309,141.5L628.19,141.5" style="fill:none;fill-rule:nonzero;stroke:black;stroke-opacity:0.1;stroke-width:0.5px;"/>
    <path d="M60.309,98.271L628.19,98.271" style="fill:none;fill-rule:nonzero;stroke:black;stroke-opacity:0.1;stroke-width:0.5px;"/>
    <path d="M60.309,55.041L628.19,55.041" style="fill:none;fill-rule:nonzero;stroke:black;stroke-opacity:0.1;stroke-width:0.5px;"/>
    <path d="M60.309,11.811L628.19,11.811" style="fill:none;fill-rule:nonzero;stroke:black;stroke-opacity:0.1;stroke-width:0.5px;"/>
    <path d="M60.309,357.65L60.309,11.811" style="fill:none;fill-rule:nonzero;stroke:black;stroke-width:1px;"/>
    <path d="M60.309,357.65L65.033,357.65" style="fill:none;fill-rule:nonzero;stroke:black;stroke-width:1px;"/>
    <path d="M60.309,314.42L65.033,314.42" style="fill:none;fill-rule:nonzero;stroke:black;stroke-width:1px;"/>
    <path d="M60.309,271.19L65.033,271.19" style="fill:none;fill-rule:nonzero;stroke:black;stroke-width:1px;"/>
    <path d="M60.309,227.96L65.033,227.96" style="fill:none;fill-rule:nonzero;stroke:black;stroke-width:1px;"/>
    <path d="M60.309,184.73L65.033,184.73" style="fill:none;fill-rule:nonzero;stroke:black;stroke-width:1px;"/>
    <path d="M60.309,141.5L65.033,141.5" style="fill:none;fill-rule:nonzero;stroke:black;stroke-width:1px;"/>
    <path d="M60.309,98.271L65.033,98.271" style="fill:none;fill-rule:nonzero;stroke:black;stroke-width:1px;"/>
    <path d="M60.309,55.041L65.033,55.041" style="fill:none;fill-rule:nonzero;stroke:black;stroke-width:1px;"/>
    <path d="M60.309,11.811L65.033,11.811" style="fill:none;fill-rule:nonzero;stroke:black;stroke-width:1px;"/>
    <g transform="matrix(1,0,0,1,39.0003,362.025)">
        <text x="-11.678px" y="0px" style="font-family:'ArialMT', 'Arial', sans-serif;font-size:12px;">0.00</text>
    </g>
    <g transform="matrix(1,0,0,1,39.0003,318.795)">
        <text x="-11.678px" y="0px" style="font-family:'ArialMT', 'Arial', sans-serif;font-size:12px;">0.05</text>
    </g>
    <g transform="matrix(1,0,0,1,39.0003,275.565)">
        <text x="-11.678px" y="0px" style="font-family:'ArialMT', 'Arial', sans-serif;font-size:12px;">0.10</text>
    </g>
    <g transform="matrix(1,0,0,1,39.0003,232.335)">
        <text x="-11.678px" y="0px" style="font-family:'ArialMT', 'Arial', sans-serif;font-size:12px;">0.15</text>
    </g>
    <g transform="matrix(1,0,0,1,39.0003,189.105)">
        <text x="-11.678px" y="0px" style="font-family:'ArialMT', 'Arial', sans-serif;font-size:12px;">0.20</text>
    </g>
    <g transform="matrix(1,0,0,1,39.0003,145.875)">
        <text x="-11.678px" y="0px" style="font-family:'ArialMT', 'Arial', sans-serif;font-size:12px;">0.25</text>
    </g>
    <g transform="matrix(1,0,0,1,39.0003,102.645)">
        <text x="-11.678px" y="0px" style="font-family:'ArialMT', 'Arial', sans-serif;font-size:12px;">0.30</text>
    </g>
    <g transform="matrix(1,0,0,1,39.0003,59.4158)">
        <text x="-11.678px" y="0px" style="font-family:'ArialMT', 'Arial', sans-serif;font-size:12px;">0.35</text>
    </g>
    <g transform="matrix(1,0,0,1,39.0003,16.186)">
        <text x="-11.678px" y="0px" style="font-family:'ArialMT', 'Arial', sans-serif;font-size:12px;">0.40</text>
    </g>
    <g transform="matrix(-3.82857e-16,-1,1,-3.82857e-16,14.8011,184.73)">
        <g>
            <text x="-102.726px" y="0px" style="font-family:'ArialMT', 'Arial', sans-serif;font-size:16.5px;">proportion of</text>
            <text x="-5.499px" y="0px" style="font-family:'Arial-ItalicMT', 'Arial', sans-serif;font-style:italic;font-size:16.5px;">n</text>
            <text x="8.262px" y="0px" style="font-family:'ArialMT', 'Arial', sans-serif;font-size:16.5px;">divisible by 5</text>
        </g>
    </g>
    <path d="M61.442,192.5L62.576,191.705L63.709,191.369L64.843,191.305L65.976,191.077L67.11,191.14L68.243,190.581L69.376,190.978L70.51,190.876L71.644,190.75L72.777,190.659L73.911,190.633L75.044,190.678L76.178,190.399L77.311,190.861L78.445,190.599L79.578,190.686L80.712,190.32L81.845,190.567L82.979,190.437L84.112,190.329L85.246,190.345L86.379,190.587L87.513,190.437L88.646,190.314L89.78,190.398L90.913,190.62L92.047,190.4L93.18,190.401L94.314,190.473L95.447,190.245L96.581,190.437L97.714,190.36L98.848,190.342L99.981,190.285L101.115,190.171L102.248,190.337L103.382,190.082L104.515,190.308L105.649,190.188L106.782,190.397L107.915,190.068L109.049,190.358L110.183,190.213L111.316,190.253L112.449,190.179L113.583,190.255L114.716,189.784L115.85,190.373L116.983,189.875L118.117,190.093L119.25,189.991L120.384,190.308L121.517,190.159L122.651,190.322L123.784,189.894L124.918,190.344L126.051,190.197L127.185,190.151L128.318,190.162L129.452,189.958L130.585,190.416L131.719,190.022L132.852,189.903L133.986,190.179L135.119,189.991L136.253,189.753L137.386,190.167L138.52,190.334L139.653,190.092L140.787,189.999L141.92,189.971L143.054,189.854L144.187,189.993L145.321,190.004L146.454,190.135L147.588,190.402L148.721,189.79L149.855,190.093L150.988,190.015L152.122,190.038L153.255,190.116L154.389,189.938L155.522,190.161L156.656,190.028L157.789,189.788L158.923,190.071L160.056,189.829L161.19,189.746L162.323,190.02L163.457,189.99L164.59,189.789L165.724,190.154L166.857,189.981L167.991,189.861L169.124,189.989L170.258,189.902L171.391,190.037L172.525,189.986L173.658,189.978L174.792,189.866L175.925,189.825L177.059,190.042L178.192,189.776L179.326,189.863L180.459,189.683L181.593,190.083L182.726,189.718L183.86,190.118L184.993,190.077L186.127,189.931L187.26,190.02L188.393,189.855L189.527,190.012L190.661,189.591L191.794,189.863L192.928,190.006L194.061,189.683L195.195,189.753L196.328,189.94L197.462,190.019L198.595,190.032L199.729,189.813L200.862,189.752L201.995,189.947L203.129,189.897L204.262,189.558L205.396,190.141L206.529,190.1L207.663,189.9L208.796,189.952L209.93,189.549L211.063,189.869L212.197,189.844L213.33,189.997L214.464,189.963L215.597,189.558L216.731,190.024L217.864,189.438L218.998,189.827L220.131,189.594L221.265,189.776L222.398,189.88L223.532,189.711L224.665,189.749L225.799,189.92L226.932,189.784L228.066,189.757L229.199,189.771L230.333,189.746L231.466,189.929L232.6,189.709L233.733,189.683L234.867,190.046L236,189.698L237.134,189.835L238.267,189.838L239.401,189.854L240.534,189.848L241.668,189.814L242.801,189.767L243.935,189.706L245.068,189.738L246.202,189.589L247.335,189.846L248.469,189.561L249.602,189.789L250.735,189.682L251.87,189.597L253.003,189.892L254.135,189.748L255.27,189.838L256.402,189.781L257.538,189.922L258.67,189.836L259.803,189.761L260.938,189.688L262.07,189.652L263.205,189.696L264.338,189.793L265.47,189.696L266.605,189.903L267.738,189.565L268.873,189.843L270.005,189.854L271.138,189.827L272.273,189.695L273.405,189.745L274.54,189.8L275.673,189.546L276.805,189.638L277.94,189.854L279.073,189.846L280.208,189.879L281.34,189.6L282.473,189.733L283.608,189.858L284.74,189.792L285.875,189.636L287.008,189.323L288.14,189.854L289.275,189.887L290.408,189.471L291.543,190.007L292.675,189.58L293.808,190.091L294.943,189.744L296.075,189.724L297.21,189.85L298.342,189.72L299.475,189.618L300.61,189.656L301.743,189.687L302.878,189.625L304.01,189.584L305.143,189.621L306.277,190.109L307.41,189.746L308.545,189.677L309.678,189.539L310.81,189.601L311.945,190.022L313.078,189.719L314.21,189.628L315.345,189.416L316.478,189.722L317.613,189.906L318.745,189.818L319.878,189.657L321.013,189.72L322.145,189.424L323.28,189.922L324.413,189.616L325.545,189.553L326.68,189.532L327.813,189.837L328.948,189.66L330.08,189.443L331.212,189.762L332.348,189.73L333.48,189.677L334.615,189.821L335.748,189.847L336.88,189.413L338.015,189.735L339.148,189.536L340.283,189.533L341.415,189.536L342.548,189.788L343.683,189.478L344.815,189.966L345.95,189.755L347.083,189.599L348.215,189.756L349.35,189.479L350.483,189.71L351.618,189.903L352.75,189.709L353.883,189.561L355.018,189.919L356.15,189.669L357.285,189.755L358.418,189.539L359.55,189.452L360.685,189.779L361.818,189.702L362.953,189.558L364.085,189.764L365.217,189.431L366.353,189.454L367.485,189.419L368.62,189.918L369.753,189.209L370.885,189.459L372.02,189.602L373.152,189.933L374.288,189.831L375.42,189.344L376.553,189.783L377.688,189.723L378.82,189.719L379.955,189.617L381.087,189.557L382.22,189.459L383.355,189.457L384.488,189.474L385.623,189.716L386.755,189.784L387.888,189.386L389.023,189.657L390.155,189.547L391.29,189.426L392.423,189.712L393.555,189.421L394.69,189.514L395.823,189.688L396.958,189.442L398.09,189.357L399.223,189.933L400.358,189.825L401.49,189.684L402.623,189.661L403.758,189.78L404.89,189.738L406.025,189.608L407.158,189.471L408.29,189.786L409.425,189.363L410.558,189.76L411.693,189.649L412.825,189.461L413.958,189.496L415.092,189.515L416.225,189.536L417.36,189.526L418.493,189.409L419.625,189.583L420.76,189.443L421.893,189.841L423.027,189.739L424.16,189.712L425.293,189.437L426.428,189.499L427.56,189.657L428.695,189.482L429.828,189.59L430.96,189.629L432.095,189.375L433.228,189.455L434.363,189.78L435.495,189.762L436.628,189.501L437.763,189.49L438.895,189.401L440.03,189.542L441.163,189.774L442.295,189.53L443.43,189.509L444.563,189.465L445.698,189.587L446.83,189.777L447.962,189.858L449.098,189.645L450.23,189.596L451.365,189.653L452.498,189.649L453.63,189.565L454.765,189.561L455.897,189.687L457.033,189.457L458.165,189.724L459.298,189.211L460.433,189.544L461.565,189.493L462.7,189.595L463.833,189.525L464.965,189.287L466.1,189.465L467.233,189.298L468.368,189.572L469.5,189.746L470.633,189.544L471.768,189.517L472.9,189.352L474.035,189.513L475.168,189.555L476.3,189.491L477.435,189.758L478.568,189.273L479.703,189.694L480.835,189.597L481.967,189.696L483.103,189.402L484.235,189.582L485.37,189.316L486.503,189.618L487.635,189.653L488.77,189.569L489.902,189.729L491.035,189.663L492.17,189.672L493.303,189.404L494.438,189.561L495.57,189.433L496.703,189.613L497.837,189.544L498.97,189.415L500.105,189.531L501.238,189.709L502.37,189.684L503.505,189.601L504.638,189.747L505.772,189.434L506.905,189.477L508.038,189.423L509.173,189.55L510.305,189.508L511.44,189.576L512.573,189.727L513.705,189.376L514.84,189.695L515.972,189.585L517.107,189.559L518.24,189.508L519.372,189.308L520.508,189.732L521.64,189.372L522.775,189.462L523.908,189.694L525.04,189.7L526.175,189.66L527.308,189.747L528.443,189.445L529.575,189.508L530.708,189.828L531.843,189.568L532.975,189.324L534.11,189.737L535.242,189.672L536.375,189.5L537.51,189.428L538.643,189.509L539.778,189.452L540.91,189.367L542.043,189.354L543.178,189.581L544.31,189.556L545.445,189.5L546.578,189.697L547.71,189.198L548.845,189.506L549.978,189.597L551.113,189.536L552.245,189.411L553.378,189.749L554.513,189.516L555.645,189.374L556.78,189.65L557.913,189.383L559.045,189.522L560.18,189.396L561.313,189.448L562.448,189.502L563.58,189.314L564.713,189.35L565.848,189.664L566.98,189.775L568.115,189.463L569.247,189.457L570.38,189.272L571.515,189.544L572.648,189.442L573.783,189.297L574.915,189.493L576.048,189.683L577.183,189.505L578.315,189.314L579.45,189.563L580.583,189.553L581.715,189.426L582.85,189.592L583.983,189.534L585.115,189.427L586.25,189.511L587.383,189.279L588.518,189.569L589.65,189.596L590.783,189.199L591.918,189.18L593.05,189.625L594.185,189.583L595.318,189.558L596.45,189.821L597.585,189.205L598.718,189.649L599.853,189.412L600.985,189.401L602.117,189.437L603.253,189.548L604.385,189.677L605.52,189.479L606.653,189.508L607.785,189.325L608.92,189.477L610.053,189.612L611.188,189.668L612.32,189.682L613.453,189.389L614.588,189.737L615.72,189.448L616.855,189.389L617.987,189.4L619.12,189.45L620.255,189.295L621.388,189.512L622.523,189.067L623.655,189.72L624.788,189.463L625.923,189.481L627.055,189.515" style="fill:none;fill-rule:nonzero;stroke:rgb(229,102,51);stroke-width:1.5px;"/>
    <path d="M61.442,151.445L62.576,149.641L63.709,149.525L64.843,148.234L65.976,149.821L67.11,148.345L68.243,151.723L69.376,147.205L70.51,148.282L71.644,149.666L72.777,149.898L73.911,149.86L75.044,148.486L76.178,150.07L77.311,145.805L78.445,148.878L79.578,146.664L80.712,149.837L81.845,149.127L82.979,149.086L84.112,148.509L85.246,148.717L86.379,147.003L87.513,147.876L88.646,149.285L89.78,147.712L90.913,145.99L92.047,147.934L93.18,147.648L94.314,146.92L95.447,149.048L96.581,146.47L97.714,147.516L98.848,147.651L99.981,148.323L101.115,147.939L102.248,147.637L103.382,149.858L104.515,147.081L105.649,148.142L106.782,146.309L107.915,149.311L109.049,147.014L110.183,148.075L111.316,147.05L112.449,147.843L113.583,147.297L114.716,151.123L115.85,145.888L116.983,149.461L118.117,147.271L119.25,149L120.384,147.373L121.517,146.841L122.651,147.145L123.784,149.871L124.918,145.383L126.051,146.942L127.185,147.705L128.318,147.887L129.452,148.921L130.585,144.509L131.719,148.694L132.852,149.042L133.986,145.9L135.119,148.659L136.253,150.44L137.386,146.87L138.52,145.317L139.653,146.322L140.787,148.114L141.92,148.402L143.054,148.758L144.187,148.556L145.321,147.452L146.454,147.069L147.588,144.504L148.721,150.703L149.855,146.378L150.988,147.9L152.122,146.562L153.255,146.531L154.389,148.502L155.522,146.236L156.656,146.944L157.789,149.526L158.923,147.106L160.056,149.472L161.19,149.426L162.323,148.274L163.457,147.119L164.59,149.394L165.724,145.628L166.857,147.148L167.991,148.181L169.124,146.931L170.258,147.929L171.391,145.469L172.525,147.29L173.658,146.972L174.792,148.236L175.925,148.329L177.059,146.915L178.192,148.444L179.326,147.421L180.459,150.2L181.593,146.023L182.726,149.112L183.86,145.899L184.993,145.289L186.127,146.408L187.26,146.239L188.393,148.736L189.527,146.094L190.661,150.191L191.794,148.487L192.928,147.223L194.061,149.356L195.195,148.192L196.328,146.437L197.462,146.737L198.595,145.685L199.729,147.383L200.862,148.277L201.995,146.189L203.129,146.604L204.262,150.466L205.396,146.009L206.529,145.946L207.663,147.617L208.796,146.521L209.93,150.702L211.063,147.502L212.197,147.625L213.33,146.577L214.464,146.392L215.597,149.845L216.731,146.64L217.864,149.969L218.998,147.762L220.131,148.804L221.265,148.031L222.398,147.407L223.532,148.401L224.665,147.009L225.799,147.23L226.932,147.497L228.066,147.893L229.199,147.778L230.333,149.3L231.466,147.468L232.6,148.71L233.733,149.193L234.867,145.9L236,146.779L237.134,146.654L238.267,146.984L239.401,146.027L240.534,146.872L241.668,147.543L242.801,147.809L243.935,147.761L245.068,148.218L246.202,148.464L247.335,147.514L248.469,149.021L249.602,147.873L250.735,148.247L251.87,149.308L253.003,146.299L254.135,146.901L255.27,145.952L256.402,147.857L257.538,146.066L258.67,146.032L259.803,146.563L260.938,148.089L262.07,148.053L263.205,147.401L264.338,147.006L265.47,147.813L266.605,146.297L267.738,149.272L268.873,145.746L270.005,146.559L271.138,147.134L272.273,148.315L273.405,147.832L274.54,146.495L275.673,148.931L276.805,149.095L277.94,146.457L279.073,146.442L280.208,146.426L281.34,149.042L282.473,147.624L283.608,147.19L284.74,146.869L285.875,148.358L287.008,151.622L288.14,146.093L289.275,146.923L290.408,149.524L291.543,145.121L292.675,148.099L293.808,144.6L294.943,146.093L296.075,146.469L297.21,145.608L298.342,147.12L299.475,147.72L300.61,147.794L301.743,147.292L302.878,146.967L304.01,148.034L305.143,147.859L306.277,143.905L307.41,147.709L308.545,146.409L309.678,148.495L310.81,148.817L311.945,143.796L313.078,147.779L314.21,148.62L315.345,149.088L316.478,147.118L317.613,146.839L318.745,146.539L319.878,147.732L321.013,147.31L322.145,149.91L323.28,145.29L324.413,147.353L325.545,148.876L326.68,149.648L327.813,146.537L328.948,147.652L330.08,148.554L331.212,145.654L332.348,146.066L333.48,147.613L334.615,145.841L335.748,145.912L336.88,149.638L338.015,146.383L339.148,148.371L340.283,149.103L341.415,147.429L342.548,146.116L343.683,148.914L344.815,144.766L345.95,146.325L347.083,147.037L348.215,146.761L349.35,149.22L350.483,145.32L351.618,146.349L352.75,147.051L353.883,147.615L355.018,143.963L356.15,146.741L357.285,146.725L358.418,148.068L359.55,149.854L360.685,146.081L361.818,147.306L362.953,148.807L364.085,145.862L365.217,149.829L366.353,149.121L367.485,149.589L368.62,144.196L369.753,150.525L370.885,149.589L372.02,146.32L373.152,145.287L374.288,146.197L375.42,149.59L376.553,145.744L377.688,146.464L378.82,146.907L379.955,147.127L381.087,147.423L382.22,148.907L383.355,148.252L384.488,148.21L385.623,147.452L386.755,145.277L387.888,148.75L389.023,146.638L390.155,147.319L391.29,148.336L392.423,146.46L393.555,148.754L394.69,147.901L395.823,146.654L396.958,148.888L398.09,150.403L399.223,144.618L400.358,145.346L401.49,145.462L402.623,147.522L403.758,145.752L404.89,146.176L406.025,147.247L407.158,146.66L408.29,145.342L409.425,149.148L410.558,144.704L411.693,147.356L412.825,148.981L413.958,147.241L415.092,147.655L416.225,147.274L417.36,147.279L418.493,148.894L419.625,147.673L420.76,148.534L421.893,145.196L423.027,146.631L424.16,146.106L425.293,148.641L426.428,148.317L427.56,146.531L428.695,147.463L429.828,145.77L430.96,146.616L432.095,150.044L433.228,148.384L434.363,144.837L435.495,146.318L436.628,148.035L437.763,148.954L438.895,148.785L440.03,148.083L441.163,145.423L442.295,147.833L443.43,148.077L444.563,148.217L445.698,146.758L446.83,144.949L447.962,145.072L449.098,147.284L450.23,146.786L451.365,146.008L452.498,145.957L453.63,147.668L454.765,147.467L455.897,145.691L457.033,147.795L458.165,145.825L459.298,149.976L460.433,147.595L461.565,147.053L462.7,147.499L463.833,146.925L464.965,149.318L466.1,149.7L467.233,149.156L468.368,147.88L469.5,145.342L470.633,148.068L471.768,147.14L472.9,148.689L474.035,147.967L475.168,146.896L476.3,146.87L477.435,145.126L478.568,149.39L479.703,146.605L480.835,146.349L481.967,145.832L483.103,147.916L484.235,147.307L485.37,148.999L486.503,146.347L487.635,147.01L488.77,147.024L489.902,145.594L491.035,147.117L492.17,145.926L493.303,149.186L494.438,146.987L495.57,147.172L496.703,146.794L497.837,146.902L498.97,147.822L500.105,146.394L501.238,144.987L502.37,145.957L503.505,146.891L504.638,145.315L505.772,148.116L506.905,148.075L508.038,148.043L509.173,147.423L510.305,146.713L511.44,146.931L512.573,145.1L513.705,147.857L514.84,145.361L515.972,146.93L517.107,147.832L518.24,147.734L519.372,148.485L520.508,146.032L521.64,148.938L522.775,147.896L523.908,145.945L525.04,145.213L526.175,145.499L527.308,144.024L528.443,148.059L529.575,147.33L530.708,144.539L531.843,145.686L532.975,148.585L534.11,145.041L535.242,144.943L536.375,148.387L537.51,147.148L538.643,146.943L539.778,148.722L540.91,148.347L542.043,147.577L543.178,146.621L544.31,147.491L545.445,146.718L546.578,145.211L547.71,149.811L548.845,147.452L549.978,146.885L551.113,146.925L552.245,148.068L553.378,144.415L554.513,147.343L555.645,147.446L556.78,146.434L557.913,147.979L559.045,148.099L560.18,148.256L561.313,148.267L562.448,146.326L563.58,149.287L564.713,148.97L565.848,145.149L566.98,144.177L568.115,147L569.247,147.939L570.38,148.491L571.515,147.68L572.648,148.026L573.783,148.843L574.915,146.448L576.048,145.531L577.183,147.097L578.315,148.844L579.45,145.908L580.583,147.758L581.715,148.379L582.85,146.54L583.983,145.762L585.115,147.068L586.25,146.946L587.383,148.315L588.518,146.827L589.65,146.359L590.783,149.551L591.918,149.577L593.05,146.296L594.185,146.496L595.318,146.498L596.45,143.764L597.585,149.314L598.718,147.695L599.853,147.589L600.985,147.51L602.117,147.288L603.253,145.895L604.385,146.024L605.52,145.953L606.653,146.457L607.785,148.768L608.92,147.56L610.053,145.629L611.188,144.819L612.32,145.031L613.453,148.454L614.588,145.181L615.72,145.692L616.855,148.796L617.987,148.254L619.12,148.332L620.255,148.873L621.388,146.038L622.523,150.538L623.655,145.185L624.788,146.596L625.923,146.14L627.055,148.048" style="fill:none;fill-rule:nonzero;stroke:rgb(33,191,81);stroke-width:1.5px;"/>
    <path d="M61.442,74.654L62.576,71.554L63.709,73.414L64.843,80.497L65.976,59.385L67.11,73.482L68.243,63.06L69.376,85.315L70.51,74.679L71.644,58.263L72.777,55.804L73.911,54.38L75.044,69.451L76.178,71.591L77.311,89.073L78.445,60.602L79.578,88.099L80.712,66.495L81.845,50.973L82.979,62.258L84.112,91.109L85.246,71.807L86.379,77.905L87.513,73.647L88.646,68.67L89.78,74.336L90.913,81.647L92.047,67.157L93.18,67.586L94.314,77.111L95.447,64.54L96.581,84.662L97.714,73.005L98.848,69.17L99.981,70.779L101.115,88.846L102.248,65.623L103.382,58.123L104.515,79.004L105.649,78.07L106.782,75.861L107.915,66.696L109.049,69.719L110.183,70.809L111.316,78.937L112.449,68.596L113.583,73.067L114.716,65.487L115.85,79.288L116.983,74.234L118.117,93.79L119.25,73.494L120.384,55.084L121.517,89.094L122.651,52.858L123.784,66.589L124.918,79.712L126.051,76.634L127.185,66.213L128.318,58.2L129.452,65.044L130.585,92.484L131.719,55.67L132.852,78.466L133.986,87.634L135.119,57.779L136.253,66.271L137.386,62.701L138.52,81.05L139.653,92.778L140.787,67.117L141.92,77.653L143.054,76.495L144.187,54.023L145.321,75.829L146.454,61.726L147.588,71.214L148.721,48.251L149.855,82.26L150.988,68.561L152.122,81.954L153.255,72.517L154.389,63.652L155.522,76.174L156.656,81.942L157.789,57.392L158.923,70.982L160.056,63.863L161.19,67.052L162.323,50.655L163.457,62.205L164.59,66.492L165.724,77.764L166.857,77.481L167.991,74.923L169.124,76.069L170.258,69.762L171.391,94.805L172.525,72.908L173.658,77.447L174.792,69.451L175.925,67.888L177.059,62.648L178.192,80.17L179.326,80.204L180.459,52.982L181.593,75.083L182.726,70.997L183.86,71.07L184.993,94.596L186.127,83.671L187.26,71.022L188.393,55.041L189.527,79.4L190.661,67.279L191.794,51.994L192.928,55.742L194.061,68.267L195.195,75.716L196.328,83.344L197.462,62.713L198.595,89.491L199.729,81.816L200.862,78.629L201.995,79.122L203.129,82.551L204.262,49.446L205.396,51.63L206.529,60.792L207.663,62.691L208.796,69.451L209.93,51.358L211.063,72.323L212.197,61.867L213.33,64.199L214.464,73.23L215.597,61.92L216.731,56.664L217.864,84.105L218.998,65.117L220.131,79.888L221.265,70.752L222.398,63.319L223.532,67.477L224.665,92.055L225.799,51.538L226.932,78.334L228.066,65.462L229.199,64.323L230.333,53.086L231.466,49.437L232.6,66.749L233.733,48.509L234.867,58.594L236,104.832L237.134,73.623L238.267,73.385L239.401,88.203L240.534,69.451L241.668,68.169L242.801,64.338L243.935,78.616L245.068,60.707L246.202,81.459L247.335,56.755L248.469,72.412L249.602,62.989L250.735,66.849L251.87,59.615L253.003,71.075L254.135,75.312L255.27,79.744L256.402,61.74L257.538,61.217L258.67,91.4L259.803,83.379L260.938,70.452L262.07,74.094L263.205,86.755L264.338,66.757L265.47,69.451L266.605,72.919L267.738,63.193L268.873,87.522L270.005,60.658L271.138,68.471L272.273,54.142L273.405,59.042L274.54,78.52L275.673,65.017L276.805,59.513L277.94,71.808L279.073,66.618L280.208,69.451L281.34,56.046L282.473,58.894L283.608,57.264L284.74,72.977L285.875,69.451L287.008,41.432L288.14,74.352L289.275,53.627L290.408,56.783L291.543,75.012L292.675,73.782L293.808,63.341L294.943,86.038L296.075,84.619L297.21,82.176L298.342,66.748L299.475,79.448L300.61,77.185L301.743,70.148L302.878,97.352L304.01,69.119L305.143,74.882L306.277,69.115L307.41,55.808L308.545,85.826L309.678,76.708L310.81,49.009L311.945,87.337L313.078,56.475L314.21,56.702L315.345,78.111L316.478,67.4L317.613,49.083L318.745,67.113L319.878,63.488L321.013,63.915L322.145,56.429L323.28,66.1L324.413,82.326L325.545,61.455L326.68,42.779L327.813,53.571L328.948,61.7L330.08,85.481L331.212,82.455L332.348,89.292L333.48,55.612L334.615,74.209L335.748,62.694L336.88,58.006L338.015,80.189L339.148,71.799L340.283,59.409L341.415,101.252L342.548,70.469L343.683,68.367L344.815,59.773L345.95,72.677L347.083,92.449L348.215,58.156L349.35,57.055L350.483,101.176L351.618,45.896L352.75,61.979L353.883,78.578L355.018,97.241L356.15,77.598L357.285,57.383L358.418,67.02L359.55,50.53L360.685,72.104L361.818,54.319L362.953,53.873L364.085,69.101L365.217,49.611L366.353,65.363L367.485,56.022L368.62,78.578L369.753,78.368L370.885,49.437L372.02,96.717L373.152,55.795L374.288,50.926L375.42,67.725L376.553,83.581L377.688,69.096L378.82,72.141L379.955,67.449L381.087,75.529L382.22,74.749L383.355,76.129L384.488,77.897L385.623,54.837L386.755,79.893L387.888,77.466L389.023,68.026L390.155,85.214L391.29,86.565L392.423,66.464L393.555,77.626L394.69,71.562L395.823,66.003L396.958,54.507L398.09,49.964L399.223,67.284L400.358,69.098L401.49,92.606L402.623,57.143L403.758,64.074L404.89,75.332L406.025,76.37L407.158,100.226L408.29,72.965L409.425,69.451L410.558,94.643L411.693,56.826L412.825,58.283L413.958,89.101L415.092,70.196L416.225,86.672L417.36,79.022L418.493,68.077L419.625,62.061L420.76,71.911L421.893,69.796L423.027,57.838L424.16,70.155L425.293,69.105L426.428,49.988L427.56,63.454L428.695,86.547L429.828,101.274L430.96,67.627L432.095,51.46L433.228,63.432L434.363,94.08L435.495,59.88L436.628,75.137L437.763,46.028L438.895,66.476L440.03,56.877L441.163,66.225L442.295,72.561L443.43,70.135L444.563,64.094L445.698,81.981L446.83,78.08L447.962,60.346L449.098,50.379L450.23,73.89L451.365,78.151L452.498,78.748L453.63,62.194L454.765,70.822L455.897,85.919L457.033,71.524L458.165,70.163L459.298,76.95L460.433,71.562L461.565,76.001L462.7,50.821L463.833,81.902L464.965,74.475L466.1,39.846L467.233,60.883L468.368,46.44L469.5,85.919L470.633,58.563L471.768,75.354L472.9,71.259L474.035,69.802L475.168,67.999L476.3,92.955L477.435,78.022L478.568,72.965L479.703,57.316L480.835,67.199L481.967,73.643L483.103,78.528L484.235,59.03L485.37,74.037L486.503,74.63L487.635,58.006L488.77,65.084L489.902,73.89L491.035,53.58L492.17,70.831L493.303,40.252L494.438,59.782L495.57,86.169L496.703,70.476L497.837,78.782L498.97,77.301L500.105,87.132L501.238,82.988L502.37,68.737L503.505,63.951L504.638,61.092L505.772,67.3L506.905,60.377L508.038,61.631L509.173,62.21L510.305,80.305L511.44,64.768L512.573,80.846L513.705,80.717L514.84,71.618L515.972,69.084L517.107,44.454L518.24,62.554L519.372,87.886L520.508,68.072L521.64,53.902L522.775,68.758L523.908,56.594L525.04,85.888L526.175,78.184L527.308,93.409L528.443,64.641L529.575,70.53L530.708,70.944L531.843,83.396L532.975,73.628L534.11,75.668L535.242,85.243L536.375,59.808L537.51,77.554L538.643,73.044L539.778,45.464L540.91,70.188L542.043,87.537L543.178,61.28L544.31,52.124L545.445,86.485L546.578,77.331L547.71,69.451L548.845,59.707L549.978,57.965L551.113,71.245L552.245,68.367L553.378,81.459L554.513,63.023L555.645,87.815L556.78,52.817L557.913,68.683L559.045,49.014L560.18,66.453L561.313,58.737L562.448,76.452L563.58,60.848L564.713,66.295L565.848,84.788L566.98,76.822L568.115,73.6L569.247,45.132L570.38,84.383L571.515,54.985L572.648,61.277L573.783,71.911L574.915,87.534L576.048,66.476L577.183,69.092L578.315,72.301L579.45,78.196L580.583,47.035L581.715,47.282L582.85,62.926L583.983,87.949L585.115,80.842L586.25,75.927L587.383,80.76L588.518,57.732L589.65,66.176L590.783,68.729L591.918,66.725L593.05,63.643L594.185,67.208L595.318,68.015L596.45,79.783L597.585,75.332L598.718,33.563L599.853,66.292L600.985,78.118L602.117,80.367L603.253,77.569L604.385,62.926L605.52,90.118L606.653,79.202L607.785,61.247L608.92,61.183L610.053,79.276L611.188,73.273L612.32,76.85L613.453,68.732L614.588,56.524L615.72,115.865L616.855,33.426L617.987,61.951L619.12,51.264L620.255,55.148L621.388,77.116L622.523,75.789L623.655,57.397L624.788,85.703L625.923,88.33L627.055,43.251" style="fill:none;fill-rule:nonzero;stroke:rgb(33,53,165);stroke-width:1.5px;"/>
    <path d="M61.442,184.731L627.055,184.731" style="fill:none;fill-rule:nonzero;stroke:rgb(127,127,127);stroke-width:1.5px;"/>
</svg>
